<svg width="24" height="25" viewBox="0 0 24 25" fill="none" xmlns="http://www.w3.org/2000/svg">
<path d="M16.5 16C18.22 16 20.25 16.8 20.5 17.28V18H12.5V17.28C12.75 16.8 14.78 16 16.5 16ZM16.5 14.5C14.67 14.5 11 15.42 11 17.25V19.5H22V17.25C22 15.42 18.33 14.5 16.5 14.5ZM9 13.5C6.67 13.5 2 14.67 2 17V19.5H9V18H3.5V17C3.5 16.37 6.29 14.84 9.82 15C10.2499 14.4859 10.7765 14.0612 11.37 13.75C10.59 13.59 9.79624 13.5063 9 13.5ZM9 7C9.29667 7 9.58668 7.08797 9.83335 7.2528C10.08 7.41762 10.2723 7.65189 10.3858 7.92597C10.4994 8.20006 10.5291 8.50166 10.4712 8.79264C10.4133 9.08361 10.2704 9.35088 10.0607 9.56066C9.85088 9.77044 9.58361 9.9133 9.29264 9.97118C9.00166 10.0291 8.70006 9.99935 8.42597 9.88582C8.15189 9.77229 7.91762 9.58003 7.7528 9.33335C7.58797 9.08668 7.5 8.79667 7.5 8.5C7.5 8.10218 7.65804 7.72064 7.93934 7.43934C8.22064 7.15804 8.60218 7 9 7ZM9 5.5C8.40666 5.5 7.82664 5.67595 7.33329 6.00559C6.83994 6.33524 6.45542 6.80377 6.22836 7.35195C6.0013 7.90013 5.94189 8.50333 6.05764 9.08527C6.1734 9.66721 6.45912 10.2018 6.87868 10.6213C7.29824 11.0409 7.83279 11.3266 8.41473 11.4424C8.99667 11.5581 9.59987 11.4987 10.1481 11.2716C10.6962 11.0446 11.1648 10.6601 11.4944 10.1667C11.8241 9.67336 12 9.09334 12 8.5C12 7.70435 11.6839 6.94129 11.1213 6.37868C10.5587 5.81607 9.79565 5.5 9 5.5ZM16.5 9C16.6978 9 16.8911 9.05865 17.0556 9.16853C17.22 9.27841 17.3482 9.43459 17.4239 9.61732C17.4996 9.80004 17.5194 10.0011 17.4808 10.1951C17.4422 10.3891 17.347 10.5673 17.2071 10.7071C17.0673 10.847 16.8891 10.9422 16.6951 10.9808C16.5011 11.0194 16.3 10.9996 16.1173 10.9239C15.9346 10.8482 15.7784 10.72 15.6685 10.5556C15.5586 10.3911 15.5 10.1978 15.5 10C15.5 9.73478 15.6054 9.48043 15.7929 9.29289C15.9804 9.10536 16.2348 9 16.5 9ZM16.5 7.5C16.0055 7.5 15.5222 7.64662 15.1111 7.92133C14.7 8.19603 14.3795 8.58648 14.1903 9.04329C14.0011 9.50011 13.9516 10.0028 14.048 10.4877C14.1445 10.9727 14.3826 11.4181 14.7322 11.7678C15.0819 12.1174 15.5273 12.3555 16.0123 12.452C16.4972 12.5484 16.9999 12.4989 17.4567 12.3097C17.9135 12.1205 18.304 11.8 18.5787 11.3889C18.8534 10.9778 19 10.4945 19 10C19 9.33696 18.7366 8.70107 18.2678 8.23223C17.7989 7.76339 17.163 7.5 16.5 7.5Z" fill="black"/>
</svg>
