<svg width="24" height="25" viewBox="0 0 24 25" fill="none" xmlns="http://www.w3.org/2000/svg">
<path d="M12 20.5C13.385 20.5 14.5633 19.6652 15 18.5H9C9.43668 19.6652 10.615 20.5 12 20.5Z" fill="#211F20"/>
<path d="M5.67964 10.294C6.05382 6.99085 8.77095 4.5 12 4.5C15.2291 4.5 17.9462 6.99085 18.3204 10.294L18.6652 13.3385C18.7509 14.095 19.0575 14.8069 19.5445 15.38C20.5779 16.5964 19.7392 18.5 18.1699 18.5H5.83014C4.26081 18.5 3.42209 16.5964 4.45549 15.38C4.94246 14.8069 5.24906 14.095 5.33476 13.3385L5.67964 10.294Z" fill="#211F20"/>
</svg>
