<svg width="40" height="40" viewBox="0 0 40 40" fill="none" xmlns="http://www.w3.org/2000/svg">
<rect width="40" height="40" rx="5" fill="#EA6E15"/>
<path d="M20.9545 11H19.0455C17.9911 11 17.1364 11.8059 17.1364 12.8C17.1364 13.9376 15.9192 14.6609 14.92 14.117L14.8185 14.0617C13.9054 13.5647 12.7378 13.8596 12.2106 14.7206L11.2561 16.2794C10.7289 17.1403 11.0418 18.2412 11.9549 18.7383C12.9545 19.2824 12.9545 20.7176 11.9549 21.2617C11.0418 21.7588 10.7289 22.8597 11.2561 23.7206L12.2106 25.2794C12.7378 26.1404 13.9054 26.4353 14.8185 25.9383L14.92 25.883C15.9192 25.3391 17.1364 26.0624 17.1364 27.2C17.1364 28.1941 17.9911 29 19.0455 29H20.9545C22.0089 29 22.8636 28.1941 22.8636 27.2C22.8636 26.0624 24.0808 25.3391 25.08 25.883L25.1815 25.9383C26.0946 26.4353 27.2622 26.1403 27.7894 25.2794L28.7439 23.7206C29.2711 22.8596 28.9582 21.7588 28.0451 21.2617C27.0455 20.7176 27.0455 19.2824 28.0451 18.7383C28.9582 18.2412 29.2711 17.1404 28.7439 16.2794L27.7894 14.7206C27.2622 13.8597 26.0946 13.5647 25.1815 14.0617L25.08 14.117C24.0808 14.6609 22.8636 13.9376 22.8636 12.8C22.8636 11.8059 22.0089 11 20.9545 11Z" fill="white"/>
<circle cx="20" cy="20" r="3" fill="#EA6E15"/>
</svg>
