<svg width="25" height="24" viewBox="0 0 25 24" fill="none" xmlns="http://www.w3.org/2000/svg">
<path d="M2.5 5.5C2.5 5.10218 2.65804 4.72064 2.93934 4.43934C3.22064 4.15804 3.60218 4 4 4H21C21.3978 4 21.7794 4.15804 22.0607 4.43934C22.342 4.72064 22.5 5.10218 22.5 5.5C22.5 5.89782 22.342 6.27936 22.0607 6.56066C21.7794 6.84196 21.3978 7 21 7H4C3.60218 7 3.22064 6.84196 2.93934 6.56066C2.65804 6.27936 2.5 5.89782 2.5 5.5ZM6.5 11.5C6.5 11.1022 6.65804 10.7206 6.93934 10.4393C7.22064 10.158 7.60218 10 8 10H17C17.3978 10 17.7794 10.158 18.0607 10.4393C18.342 10.7206 18.5 11.1022 18.5 11.5C18.5 11.8978 18.342 12.2794 18.0607 12.5607C17.7794 12.842 17.3978 13 17 13H8C7.60218 13 7.22064 12.842 6.93934 12.5607C6.65804 12.2794 6.5 11.8978 6.5 11.5ZM11 16C10.6022 16 10.2206 16.158 9.93934 16.4393C9.65804 16.7206 9.5 17.1022 9.5 17.5C9.5 17.8978 9.65804 18.2794 9.93934 18.5607C10.2206 18.842 10.6022 19 11 19H14C14.3978 19 14.7794 18.842 15.0607 18.5607C15.342 18.2794 15.5 17.8978 15.5 17.5C15.5 17.1022 15.342 16.7206 15.0607 16.4393C14.7794 16.158 14.3978 16 14 16H11Z" fill="#787878"/>
</svg>
