<svg width="13" height="23" viewBox="0 0 13 23" fill="none" xmlns="http://www.w3.org/2000/svg">
<path d="M12.0642 1.57339L2.50034 11.3344L12.0642 21.0954C12.2354 21.2698 12.3313 21.504 12.3313 21.7477C12.3313 21.9915 12.2354 22.2256 12.0642 22.4C11.9811 22.4845 11.8818 22.5516 11.7722 22.5974C11.6627 22.6432 11.5451 22.6667 11.4262 22.6667C11.3074 22.6667 11.1898 22.6432 11.0802 22.5974C10.9707 22.5516 10.8714 22.4845 10.7882 22.4L0.611907 12.016C0.433244 11.8336 0.333252 11.5891 0.333252 11.3344C0.333252 11.0798 0.433244 10.8352 0.611907 10.6528L10.7863 0.268791C10.8695 0.183752 10.969 0.116161 11.0789 0.0700092C11.1888 0.0238571 11.3069 8.2016e-05 11.4262 8.2016e-05C11.5455 8.2016e-05 11.6636 0.0238571 11.7735 0.0700092C11.8834 0.116161 11.983 0.183752 12.0662 0.268791C12.2374 0.44319 12.3333 0.677305 12.3333 0.921091C12.3333 1.16488 12.2374 1.39899 12.0662 1.57339H12.0642Z" fill="#423B35"/>
</svg>
