<svg width="188" height="33" viewBox="0 0 188 33" fill="none" xmlns="http://www.w3.org/2000/svg">
<path d="M0 16.5C0 25.3365 7.16344 32.4999 16 32.4999C24.8366 32.4999 31.9998 25.3365 31.9998 16.5C31.9998 7.66333 24.8366 0.499878 16 0.499878C7.16344 0.499878 0 7.66333 0 16.5ZM11.4889 6.04089C12.2127 5.40403 13.1281 5.18699 14.136 5.41363C14.8343 5.57036 15.334 5.88993 15.3888 5.92565L26.2336 13.1556C26.4386 13.2922 26.5745 13.5108 26.6067 13.7552C26.6388 13.9999 26.5639 14.2462 26.401 14.4315H26.4009C25.6917 15.2378 24.9033 15.7038 24.0576 15.8169C23.9207 15.8351 23.7818 15.8442 23.641 15.8442C23.0682 15.8442 22.4599 15.6929 21.794 15.3859L21.7739 15.3762L11.8008 10.4051V22.7928L22.0602 17.5354C22.091 17.52 22.1177 17.5082 22.1446 17.4977C24.1115 16.7419 25.6172 17.6318 26.3705 18.7168C26.5005 18.9043 26.5507 19.1401 26.5085 19.3637C26.4662 19.5874 26.3336 19.7883 26.1445 19.915L15.5075 27.0413C15.4781 27.061 15.4466 27.0792 15.4144 27.0955C14.6416 27.4807 13.9365 27.6736 13.3048 27.6736C12.8197 27.6736 12.3777 27.5599 11.9815 27.3324C11.0631 26.8048 10.6588 25.8002 10.4807 25.028C10.2916 25.0543 10.0256 25.0808 9.71837 25.0808C9.03297 25.0808 8.14475 24.9489 7.46455 24.389C7.03021 24.0316 6.51239 23.35 6.51239 22.1343V11.0616C6.51239 11.0209 6.51529 10.9801 6.52093 10.9401C6.56122 10.6598 6.8228 9.22487 8.0219 8.49156C8.66868 8.09598 9.43893 7.99115 10.3175 8.17765C10.4118 7.53041 10.7059 6.72976 11.4889 6.0407V6.04089ZM12.4531 7.13651C11.8333 7.68195 11.7257 8.3252 11.7355 8.74168L22.4149 14.0649C23.2762 14.4603 24.0051 14.5728 24.7993 13.9534L14.5889 7.14642C14.5372 7.1136 14.0049 6.78716 13.3987 6.78716C13.0844 6.78716 12.7505 6.87477 12.4531 7.13651ZM8.78345 9.73673C8.18901 10.1004 8.00542 10.9294 7.97184 11.1118V22.1344C7.97184 22.6605 8.10935 23.0296 8.39214 23.2624C8.89821 23.6787 9.83832 23.6545 10.3415 23.5737V9.69143C10.0386 9.59665 9.76308 9.54917 9.51646 9.54917C9.23305 9.54917 8.98795 9.61174 8.78345 9.73673ZM22.6961 18.8497L12.1005 24.2794L11.8483 24.4171C11.9287 24.9125 12.1449 25.7431 12.7084 26.0667C13.2735 26.3913 14.1117 26.1094 14.7276 25.807L24.748 19.0937C24.4726 18.8723 24.0848 18.678 23.5726 18.678C23.313 18.678 23.0214 18.7281 22.6961 18.8497Z" fill="url(#paint0_linear_2506_1625)"/>
<path d="M52.1376 6.93591C53.3082 6.93591 54.3634 7.06231 55.3051 7.31391C56.2455 7.56672 56.9917 7.91175 57.5425 8.34715C58.0934 8.78316 58.3688 9.27657 58.3688 9.82739C58.3688 10.1266 58.2705 10.4124 58.0763 10.6884C57.8809 10.9638 57.5993 11.1012 57.2329 11.1012C56.9337 11.1012 56.687 11.0444 56.4922 10.929C56.2974 10.8148 56.1136 10.6652 55.9414 10.482C55.7692 10.2982 55.5341 10.137 55.2361 10.0002C54.9607 9.83899 54.5582 9.71258 54.0306 9.62037C53.5024 9.52938 52.9638 9.48297 52.413 9.48297C51.1734 9.48297 50.0717 9.78159 49.1081 10.3782C48.1439 10.9754 47.3921 11.7784 46.8529 12.7885C46.3131 13.7985 46.0438 14.9453 46.0438 16.2308C46.0438 17.5162 46.3076 18.6636 46.8358 19.6731C47.3634 20.6837 48.0975 21.4867 49.0391 22.0833C49.9795 22.6806 51.0702 22.9786 52.3098 22.9786C53.1128 22.9786 53.7497 22.9096 54.2206 22.7722C54.6902 22.6342 55.0981 22.4736 55.4425 22.2904C55.8321 22.0614 56.1362 21.8317 56.3548 21.6015C56.5728 21.3725 56.8763 21.2571 57.2671 21.2571C57.6573 21.2571 57.9554 21.3835 58.1624 21.6357C58.3688 21.8885 58.472 22.1981 58.472 22.5658C58.472 22.9786 58.1843 23.4146 57.6109 23.8738C57.0375 24.333 56.2626 24.7232 55.2874 25.0438C54.3115 25.3656 53.216 25.5262 51.9996 25.5262C50.2549 25.5262 48.7289 25.1183 47.4209 24.3037C46.1128 23.4897 45.0967 22.3758 44.3743 20.9646C43.6512 19.5534 43.2897 17.9754 43.2897 16.2308C43.2897 14.4867 43.6622 12.9149 44.4085 11.5146C45.1541 10.115 46.1928 9.00116 47.5241 8.17494C48.8553 7.34871 50.3929 6.93591 52.1376 6.93591Z" fill="#52525B"/>
<path d="M76.064 16.2307C76.064 14.9 75.7941 13.7294 75.2548 12.7194C74.7156 11.7099 73.981 10.9179 73.0516 10.3439C72.1221 9.77048 71.0718 9.48285 69.9018 9.48285C68.7537 9.48285 67.7095 9.77048 66.7685 10.3439C65.8275 10.9179 65.0867 11.7099 64.5481 12.7194C64.0083 13.7294 63.739 14.9 63.739 16.2307C63.739 17.5393 64.0083 18.6983 64.5481 19.7078C65.0867 20.7184 65.8275 21.5153 66.7685 22.1003C67.7095 22.6859 68.7537 22.9784 69.9018 22.9784C71.0718 22.9784 72.1221 22.6859 73.0516 22.1003C73.981 21.5153 74.7156 20.7184 75.2548 19.7078C75.7941 18.6983 76.064 17.5393 76.064 16.2307ZM78.818 16.2307C78.818 18.0217 78.4278 19.6168 77.6474 21.0164C76.867 22.4166 75.8057 23.5183 74.4628 24.3213C73.1206 25.1243 71.5994 25.5267 69.9018 25.5267C68.2261 25.5267 66.7166 25.1243 65.3744 24.3213C64.0315 23.5183 62.9641 22.4166 62.1727 21.0164C61.3806 19.6168 60.9849 18.0217 60.9849 16.2307C60.9849 14.4408 61.3806 12.8458 62.1727 11.4455C62.9641 10.0459 64.0315 8.94364 65.3744 8.14062C66.7166 7.3376 68.2261 6.93579 69.9018 6.93579C71.5994 6.93579 73.1206 7.3376 74.4628 8.14062C75.8057 8.94364 76.867 10.0459 77.6474 11.4455C78.4278 12.8458 78.818 14.4408 78.818 16.2307Z" fill="#52525B"/>
<path d="M91.3147 7.10744C92.8756 7.10744 94.1433 7.50315 95.1185 8.29517C96.0944 9.0872 96.7423 10.2059 97.0641 11.6514H96.5475L96.7887 11.0322C97.0641 10.3903 97.5343 9.76992 98.1999 9.1733C98.8655 8.57669 99.6344 8.08389 100.506 7.69306C101.378 7.30285 102.285 7.10744 103.226 7.10744C104.741 7.10744 105.935 7.43414 106.807 8.08816C107.679 8.74279 108.305 9.61542 108.683 10.7055C109.062 11.7955 109.251 13.018 109.251 14.3719V23.7699C109.251 24.1607 109.119 24.4935 108.855 24.769C108.592 25.0438 108.264 25.1818 107.874 25.1818C107.461 25.1818 107.128 25.0438 106.876 24.769C106.623 24.4935 106.497 24.1607 106.497 23.7699V14.4409C106.497 13.5456 106.365 12.7365 106.101 12.0135C105.837 11.2905 105.412 10.7171 104.827 10.292C104.242 9.86762 103.444 9.65511 102.434 9.65511C101.493 9.65511 100.633 9.86762 99.8524 10.292C99.0719 10.7171 98.4521 11.2905 97.9935 12.0135C97.5343 12.7365 97.3053 13.5456 97.3053 14.4409V23.7699C97.3053 24.1607 97.1789 24.4935 96.9261 24.769C96.6733 25.0438 96.3411 25.1818 95.9283 25.1818C95.5374 25.1818 95.2101 25.0438 94.9469 24.769C94.6825 24.4935 94.5506 24.1607 94.5506 23.7699V14.337C94.5506 13.465 94.4303 12.6791 94.1897 11.9793C93.9485 11.2789 93.5406 10.7171 92.9672 10.292C92.3932 9.86762 91.6011 9.65511 90.5917 9.65511C89.6733 9.65511 88.8361 9.86762 88.0788 10.292C87.321 10.7171 86.7128 11.2789 86.2536 11.9793C85.7944 12.6791 85.5654 13.465 85.5654 14.337V23.7699C85.5654 24.1607 85.4328 24.4935 85.1696 24.769C84.9052 25.0438 84.5785 25.1818 84.1883 25.1818C83.7975 25.1818 83.4708 25.0438 83.2076 24.769C82.9432 24.4935 82.8113 24.1607 82.8113 23.7699V8.75989C82.8113 8.36967 82.9432 8.04297 83.2076 7.77917C83.4708 7.51536 83.7975 7.38285 84.1883 7.38285C84.6017 7.38285 84.9339 7.51536 85.1867 7.77917C85.439 8.04297 85.5654 8.36967 85.5654 8.75989V11.3766L84.8081 12.2028C84.8997 11.6062 85.1348 11.0102 85.5135 10.4123C85.8927 9.81633 86.38 9.2649 86.9766 8.75989C87.5738 8.25548 88.2388 7.85367 88.9741 7.55505C89.7081 7.25705 90.4885 7.10744 91.3147 7.10744Z" fill="#52525B"/>
<path d="M122.815 9.65505C121.667 9.65505 120.652 9.94267 119.768 10.5155C118.884 11.0901 118.196 11.8699 117.702 12.8567C117.209 13.8436 116.962 14.98 116.962 16.2648C116.962 17.5277 117.209 18.6635 117.702 19.6729C118.196 20.6836 118.884 21.475 119.768 22.049C120.652 22.6224 121.667 22.9094 122.815 22.9094C123.962 22.9094 124.972 22.6224 125.844 22.049C126.717 21.475 127.405 20.6836 127.91 19.6729C128.414 18.6635 128.667 17.5277 128.667 16.2648C128.667 14.98 128.414 13.8436 127.91 12.8567C127.405 11.8699 126.717 11.0901 125.844 10.5155C124.972 9.94267 123.962 9.65505 122.815 9.65505ZM123.125 7.10737C124.685 7.10737 126.085 7.49819 127.325 8.27801C128.564 9.05843 129.545 10.1369 130.268 11.5145C130.991 12.8915 131.353 14.4756 131.353 16.2648C131.353 18.0327 130.991 19.6106 130.268 20.9987C129.545 22.3879 128.57 23.4773 127.342 24.2694C126.114 25.0614 124.731 25.4571 123.194 25.4571C122.344 25.4571 121.546 25.3246 120.801 25.0614C120.055 24.7976 119.378 24.4532 118.77 24.0282C118.161 23.6038 117.65 23.1219 117.238 22.5827C116.825 22.0435 116.526 21.5098 116.342 20.9816L117.1 20.4998V30.6557C117.1 31.0453 116.974 31.3787 116.721 31.6535C116.468 31.9295 116.136 32.0669 115.723 32.0669C115.332 32.0669 115.005 31.9344 114.742 31.6712C114.478 31.4068 114.346 31.0685 114.346 30.6557V8.65662C114.346 8.26702 114.478 7.9397 114.742 7.67589C115.005 7.41209 115.332 7.27958 115.723 7.27958C116.136 7.27958 116.468 7.41209 116.721 7.67589C116.974 7.9397 117.1 8.26702 117.1 8.65662V11.7209L116.584 11.4455C116.744 10.8721 117.026 10.3213 117.427 9.79306C117.828 9.26484 118.322 8.80073 118.908 8.39831C119.493 7.9971 120.147 7.682 120.87 7.45178C121.593 7.22278 122.344 7.10737 123.125 7.10737Z" fill="#52525B"/>
<path d="M149.289 16.2307C149.289 14.9 149.019 13.7294 148.48 12.7194C147.941 11.7099 147.206 10.9179 146.276 10.3439C145.347 9.77048 144.297 9.48285 143.127 9.48285C141.979 9.48285 140.934 9.77048 139.993 10.3439C139.052 10.9179 138.312 11.7099 137.773 12.7194C137.234 13.7294 136.964 14.9 136.964 16.2307C136.964 17.5393 137.234 18.6983 137.773 19.7078C138.312 20.7184 139.052 21.5153 139.993 22.1003C140.934 22.6859 141.979 22.9784 143.127 22.9784C144.297 22.9784 145.347 22.6859 146.276 22.1003C147.206 21.5153 147.941 20.7184 148.48 19.7078C149.019 18.6983 149.289 17.5393 149.289 16.2307ZM152.043 16.2307C152.043 18.0217 151.653 19.6168 150.872 21.0164C150.092 22.4166 149.031 23.5183 147.688 24.3213C146.345 25.1243 144.824 25.5267 143.127 25.5267C141.451 25.5267 139.942 25.1243 138.599 24.3213C137.256 23.5183 136.189 22.4166 135.398 21.0164C134.606 19.6168 134.21 18.0217 134.21 16.2307C134.21 14.4408 134.606 12.8458 135.398 11.4455C136.189 10.0459 137.256 8.94364 138.599 8.14062C139.942 7.3376 141.451 6.93579 143.127 6.93579C144.824 6.93579 146.345 7.3376 147.688 8.14062C149.031 8.94364 150.092 10.0459 150.872 11.4455C151.653 12.8458 152.043 14.4408 152.043 16.2307Z" fill="#52525B"/>
<path d="M166.984 22.6341C167.351 22.6341 167.661 22.7544 167.914 22.9956C168.166 23.2368 168.292 23.5409 168.292 23.9079C168.292 24.2517 168.166 24.551 167.914 24.8032C167.661 25.056 167.351 25.1818 166.984 25.1818H155.83C155.417 25.1818 155.095 25.0328 154.866 24.7341C154.636 24.4361 154.521 24.1607 154.521 23.9079C154.544 23.6789 154.579 23.4835 154.625 23.3229C154.67 23.1623 154.774 22.9779 154.935 22.7721L164.781 9.4481L164.815 9.82732H156.484C156.116 9.82732 155.807 9.70091 155.555 9.4481C155.302 9.1965 155.176 8.88629 155.176 8.51928C155.176 8.17487 155.302 7.88236 155.555 7.64115C155.807 7.40055 156.116 7.27964 156.484 7.27964H167.053C167.42 7.27964 167.724 7.41216 167.965 7.67596C168.206 7.94038 168.327 8.26708 168.327 8.65668C168.304 8.81728 168.269 8.97239 168.223 9.12139C168.177 9.27101 168.086 9.4481 167.948 9.65511L158.205 22.8063L157.964 22.6341H166.984Z" fill="#52525B"/>
<path d="M179.963 25.5267C178.127 25.5267 176.52 25.1359 175.143 24.3561C173.766 23.5763 172.699 22.5027 171.941 21.1373C171.184 19.7719 170.806 18.1933 170.806 16.4035C170.806 14.4066 171.201 12.7023 171.993 11.291C172.785 9.87917 173.812 8.80075 175.074 8.05452C176.336 7.30951 177.679 6.9364 179.103 6.9364C180.181 6.9364 181.208 7.1312 182.183 7.52141C183.159 7.91162 184.031 8.47954 184.8 9.22576C185.569 9.97138 186.183 10.8666 186.642 11.9102C187.101 12.9551 187.342 14.1196 187.365 15.405C187.342 15.772 187.193 16.0823 186.917 16.3345C186.642 16.5873 186.32 16.7131 185.954 16.7131H172.355L171.735 14.3376H184.989L184.439 14.8194V14.0622C184.37 13.1218 184.065 12.312 183.526 11.6348C182.987 10.9588 182.327 10.4361 181.547 10.0691C180.766 9.70147 179.951 9.51766 179.103 9.51766C178.414 9.51766 177.731 9.63796 177.054 9.87917C176.377 10.1204 175.769 10.5106 175.229 11.0498C174.69 11.5896 174.26 12.2833 173.938 13.1328C173.617 13.9822 173.457 15.0038 173.457 16.1971C173.457 17.5277 173.726 18.6983 174.265 19.7084C174.804 20.7184 175.557 21.5159 176.52 22.1009C177.484 22.6866 178.597 22.9784 179.86 22.9784C180.686 22.9784 181.397 22.8752 181.994 22.6688C182.591 22.4624 183.101 22.2047 183.526 21.8945C183.951 21.5843 184.312 21.2692 184.611 20.948C184.909 20.741 185.207 20.6378 185.506 20.6378C185.827 20.6378 186.103 20.7532 186.332 20.9822C186.561 21.2124 186.677 21.4872 186.677 21.8084C186.677 22.1986 186.492 22.543 186.125 22.841C185.46 23.5531 184.582 24.1784 183.492 24.7176C182.401 25.2568 181.225 25.5267 179.963 25.5267Z" fill="#52525B"/>
<defs>
<linearGradient id="paint0_linear_2506_1625" x1="-3.0523e-05" y1="16.4999" x2="32" y2="16.4999" gradientUnits="userSpaceOnUse">
<stop stop-color="#FE8552"/>
<stop offset="0.189189" stop-color="#FE8552"/>
<stop offset="1" stop-color="#FD9948"/>
</linearGradient>
</defs>
</svg>
