<svg width="21" height="21" viewBox="0 0 21 21" fill="none" xmlns="http://www.w3.org/2000/svg">
<path opacity="0.6" d="M18.5 15.7639V7L10.5 9L2.5 7V15.7639C2.5 16.5215 2.928 17.214 3.60557 17.5528L9.60557 20.5528C10.1686 20.8343 10.8314 20.8343 11.3944 20.5528L17.3944 17.5528C18.072 17.214 18.5 16.5215 18.5 15.7639Z" fill="white"/>
<path opacity="0.6" d="M18.5 5.00002L11.3944 1.44723C10.8314 1.1657 10.1686 1.1657 9.60557 1.44723L2.5 5.00002L10.5 9.00002L18.5 5.00002Z" fill="white"/>
<path d="M18.5 5L10.5 9L12.5 12L20.5 8L18.5 5Z" fill="white"/>
<path d="M2.5 5L10.5 9L8.5 12L0.5 8L2.5 5Z" fill="white"/>
<path fill-rule="evenodd" clip-rule="evenodd" d="M10.5 0.25C10.9142 0.25 11.25 0.585786 11.25 1V2.25H12.5C12.9142 2.25 13.25 2.58579 13.25 3C13.25 3.41421 12.9142 3.75 12.5 3.75H11.25V5C11.25 5.41421 10.9142 5.75 10.5 5.75C10.0858 5.75 9.75 5.41421 9.75 5V3.75H8.5C8.08579 3.75 7.75 3.41421 7.75 3C7.75 2.58579 8.08579 2.25 8.5 2.25H9.75V1C9.75 0.585786 10.0858 0.25 10.5 0.25Z" fill="white"/>
</svg>
