<svg width="20" height="21" viewBox="0 0 20 21" fill="none" xmlns="http://www.w3.org/2000/svg">
<path opacity="0.6" d="M18 15.7639V7L10 9L2 7V15.7639C2 16.5215 2.428 17.214 3.10557 17.5528L9.10557 20.5528C9.66863 20.8343 10.3314 20.8343 10.8944 20.5528L16.8944 17.5528C17.572 17.214 18 16.5215 18 15.7639Z" fill="#EA6E15"/>
<path opacity="0.6" d="M18 5.00002L10.8944 1.44723C10.3314 1.1657 9.66863 1.1657 9.10557 1.44723L2 5.00002L10 9.00002L18 5.00002Z" fill="#EA6E15"/>
<path d="M18 5L10 9L12 12L20 8L18 5Z" fill="#EA6E15"/>
<path d="M2 5L10 9L8 12L0 8L2 5Z" fill="#EA6E15"/>
<path fill-rule="evenodd" clip-rule="evenodd" d="M10 0.25C10.4142 0.25 10.75 0.585786 10.75 1V2.25H12C12.4142 2.25 12.75 2.58579 12.75 3C12.75 3.41421 12.4142 3.75 12 3.75H10.75V5C10.75 5.41421 10.4142 5.75 10 5.75C9.58579 5.75 9.25 5.41421 9.25 5V3.75H8C7.58579 3.75 7.25 3.41421 7.25 3C7.25 2.58579 7.58579 2.25 8 2.25H9.25V1C9.25 0.585786 9.58579 0.25 10 0.25Z" fill="#EA6E15"/>
</svg>
