<svg width="24" height="25" viewBox="0 0 24 25" fill="none" xmlns="http://www.w3.org/2000/svg">
<g clip-path="url(#clip0_102_1060)">
<path fill-rule="evenodd" clip-rule="evenodd" d="M2.2739 18.1509C2.32396 18.2368 2.33781 18.3392 2.31241 18.4354C2.28702 18.5315 2.22445 18.6137 2.13848 18.6638C2.0525 18.7138 1.95017 18.7277 1.85398 18.7023C1.75779 18.6769 1.67563 18.6143 1.62557 18.5283C0.51233 16.6125 -0.0486416 14.4257 0.00483906 12.2105C0.0583197 9.99536 0.724163 7.83825 1.92856 5.97832C3.13296 4.11839 4.82887 2.6283 6.8283 1.67322C8.82773 0.718134 11.0526 0.335367 13.2562 0.567346C15.3771 0.787146 17.4002 1.57121 19.1153 2.83797L18.8552 1.92691C18.8417 1.87954 18.8377 1.82998 18.8433 1.78105C18.8489 1.73211 18.8641 1.68477 18.8881 1.64172C18.912 1.59867 18.9442 1.56075 18.9828 1.53014C19.0214 1.49952 19.0656 1.47681 19.113 1.46329C19.1603 1.44977 19.2099 1.44572 19.2588 1.45135C19.3078 1.45699 19.3551 1.47221 19.3982 1.49614C19.4412 1.52008 19.4791 1.55226 19.5097 1.59084C19.5404 1.62943 19.5631 1.67367 19.5766 1.72103L20.1648 3.78292C20.1804 3.83761 20.1833 3.89514 20.1734 3.95114C20.1635 4.00715 20.141 4.06016 20.1076 4.10618C20.0742 4.1522 20.0307 4.19002 19.9805 4.21677C19.9304 4.24352 19.8747 4.2585 19.8179 4.26058L17.6749 4.3375C17.6702 4.3379 17.6655 4.33805 17.6608 4.33797C17.5636 4.33631 17.4709 4.29696 17.4021 4.22823C17.3334 4.1595 17.294 4.06677 17.2923 3.96957C17.2906 3.87237 17.3267 3.77832 17.393 3.70723C17.4593 3.63615 17.5506 3.59359 17.6477 3.58853L18.8102 3.54635C17.1738 2.29783 15.2247 1.52509 13.1773 1.31322C7.00893 0.664049 1.46249 5.15397 0.81332 11.3226C0.557021 13.6963 1.06896 16.0897 2.2739 18.1509ZM18.5601 16.2875V9.17458L12.4001 12.7308V19.8439L18.5601 16.2875ZM5.43974 16.2875L11.5999 19.8439V12.7308L5.43993 9.17458V16.2875H5.43974ZM5.83977 8.48167L12 12.038L18.16 8.48153L12 4.92499L5.83996 8.48153L5.83977 8.48167ZM22.3744 6.47186C22.35 6.42862 22.3172 6.39066 22.278 6.36018C22.2388 6.32971 22.194 6.30732 22.146 6.29432C22.0981 6.28132 22.0481 6.27798 21.9988 6.28447C21.9496 6.29096 21.9022 6.30717 21.8592 6.33215C21.8163 6.35713 21.7788 6.39039 21.7488 6.42999C21.7189 6.46959 21.6971 6.51475 21.6847 6.56284C21.6723 6.61093 21.6696 6.661 21.6768 6.71014C21.6839 6.75929 21.7007 6.80652 21.7263 6.84911C23.0325 9.09814 23.5191 11.7303 23.1032 14.2977C22.6874 16.8651 21.3948 19.209 19.4454 20.9307C17.496 22.6524 15.0103 23.6454 12.4112 23.7408C9.81207 23.8362 7.26022 23.0281 5.18985 21.454L6.35235 21.4121C6.45176 21.4086 6.54568 21.3656 6.61345 21.2928C6.68121 21.22 6.71727 21.1232 6.71369 21.0238C6.71011 20.9244 6.66718 20.8305 6.59435 20.7627C6.52153 20.6949 6.42476 20.6589 6.32535 20.6625L4.18232 20.7394C4.12545 20.7414 4.06979 20.7564 4.01956 20.7831C3.96933 20.8098 3.92584 20.8476 3.89241 20.8937C3.85897 20.9397 3.83646 20.9928 3.82659 21.0488C3.81672 21.1049 3.81975 21.1624 3.83544 21.2171L4.42363 23.2789C4.44599 23.3573 4.49326 23.4263 4.5583 23.4755C4.62335 23.5246 4.70262 23.5513 4.78415 23.5514C4.81904 23.5514 4.85376 23.5465 4.88727 23.5368C4.93464 23.5233 4.97888 23.5006 5.01747 23.47C5.05606 23.4394 5.08824 23.4015 5.11219 23.3584C5.13613 23.3154 5.15135 23.2681 5.157 23.2191C5.16264 23.1702 5.1586 23.1207 5.14509 23.0733L4.88502 22.1625C6.60023 23.4287 8.62319 24.2125 10.7437 24.4325C11.1685 24.4775 11.5954 24.5 12.0225 24.5C14.1297 24.4958 16.1986 23.9367 18.0211 22.8792C19.8437 21.8216 21.3556 20.3028 22.4049 18.4755C23.4541 16.6481 24.0037 14.5767 23.9984 12.4696C23.993 10.3624 23.4329 8.29385 22.3744 6.47186Z" fill="black"/>
</g>
<defs>
<clipPath id="clip0_102_1060">
<rect width="24" height="24" fill="white" transform="translate(0 0.5)"/>
</clipPath>
</defs>
</svg>
